<svg width="24" height="24" viewBox="0 0 24 24" fill="none" xmlns="http://www.w3.org/2000/svg">
<path d="M3.00039 11.9996C3.00039 11.8007 3.07941 11.6099 3.22006 11.4693C3.36071 11.3286 3.55148 11.2496 3.75039 11.2496L18.4401 11.2496L12.9698 5.78021C12.9001 5.71053 12.8448 5.6278 12.8071 5.53676C12.7694 5.44571 12.75 5.34813 12.75 5.24958C12.75 5.15104 12.7694 5.05346 12.8071 4.96241C12.8448 4.87137 12.9001 4.78864 12.9698 4.71896C13.0394 4.64927 13.1222 4.594 13.2132 4.55629C13.3043 4.51858 13.4018 4.49917 13.5004 4.49917C13.5989 4.49917 13.6965 4.51858 13.7876 4.55629C13.8786 4.594 13.9613 4.64927 14.031 4.71896L20.781 11.469C20.8507 11.5386 20.9061 11.6213 20.9438 11.7124C20.9816 11.8034 21.001 11.901 21.001 11.9996C21.001 12.0981 20.9816 12.1957 20.9438 12.2868C20.9061 12.3778 20.8507 12.4606 20.781 12.5302L14.031 19.2802C13.8903 19.4209 13.6994 19.5 13.5004 19.5C13.3014 19.5 13.1105 19.4209 12.9698 19.2802C12.829 19.1395 12.75 18.9486 12.75 18.7496C12.75 18.5506 12.829 18.3597 12.9698 18.219L18.4401 12.7496L3.75039 12.7496C3.55148 12.7496 3.36071 12.6706 3.22006 12.5299C3.07941 12.3893 3.00039 12.1985 3.00039 11.9996Z" fill="black"/>
</svg>
