<svg width="48" height="48" viewBox="0 0 48 48" fill="none" xmlns="http://www.w3.org/2000/svg">
<path d="M8.75959 12.1185C8.75959 12.1185 8.75671 12.1214 8.75575 12.1233L5.18359 6.48047L8.75959 12.1185Z" fill="white"/>
<path d="M8.04483 12.9654C8.04483 12.9654 8.04195 12.9683 8.04099 12.9702L5.26562 8.58491V8.58203L8.04483 12.9654Z" fill="white"/>
<path d="M37.5565 35.1678C38.5204 33.3985 39.0676 31.372 39.0676 29.2206C39.0676 27.7835 38.8237 26.403 38.3744 25.1176C41.5885 23.4539 43.7908 20.0958 43.7908 16.2337C43.7908 10.7195 39.3047 6.23438 33.7914 6.23438H21.9421C16.7149 6.23438 12.009 8.50765 8.76036 12.1182C8.75844 12.1192 8.75748 12.1211 8.75652 12.123L5.18436 6.48014C5.1594 6.44078 5.1306 6.40622 5.09796 6.37646C5.08932 6.36878 5.08164 6.36109 5.073 6.35437C5.06436 6.34765 5.05572 6.34094 5.04612 6.33422C5.02884 6.32078 5.00964 6.30926 4.99044 6.2987C4.8714 6.23438 4.72836 6.21614 4.59108 6.2555C4.36548 6.32078 4.20996 6.52717 4.20996 6.76237V41.1697C4.20996 41.4616 4.44708 41.6977 4.73796 41.6977C5.02884 41.6977 5.26596 41.4616 5.26596 41.1697V29.9973C7.73892 36.8142 14.2813 41.6977 21.9421 41.6977H26.3024C26.3024 41.6977 26.2996 41.6968 26.2986 41.6958C26.3735 41.6968 26.4493 41.6977 26.5242 41.6977H26.5904C26.6663 41.6977 26.7412 41.6968 26.817 41.6958C31.0669 41.62 34.8042 39.4081 37.0007 36.0913L42.9037 41.5566C43.0055 41.6507 43.1341 41.6977 43.2628 41.6977C43.4039 41.6977 43.546 41.6411 43.6496 41.5278C43.8484 41.3147 43.8349 40.9806 43.6208 40.7819L37.5565 35.1678ZM21.9421 7.29037H25.5968L15.6484 22.9797L9.34884 13.0456C12.4093 9.52141 16.9204 7.29037 21.9421 7.29037ZM5.26596 8.58062L8.04516 12.964C8.04516 12.964 8.04228 12.9669 8.04132 12.9688C6.86628 14.451 5.9226 16.1253 5.26596 17.9349V8.58062ZM5.26596 23.9656C5.26596 20.1957 6.52356 16.7137 8.64228 13.9173L15.1223 24.1557C14.9735 24.4888 14.8391 24.8286 14.72 25.1761H5.31012C5.28036 24.7758 5.26596 24.3726 5.26596 23.9656ZM5.41956 26.2321H14.409C14.1728 27.1902 14.0471 28.1905 14.0471 29.2206C14.0471 34.3086 17.1095 38.6958 21.488 40.635C13.2666 40.4152 6.50916 34.2136 5.41956 26.2321ZM15.1031 29.2206C15.1031 28.1867 15.2413 27.1845 15.5005 26.2321H16.4365L25.5287 40.5976C19.6957 40.0926 15.1031 35.1832 15.1031 29.2206ZM26.0298 39.4158L17.1748 25.4248C17.1709 25.4171 17.1661 25.4104 17.1604 25.4027C17.1604 25.4017 17.1594 25.3998 17.1575 25.3989L16.3252 24.0837C18.1386 20.4981 21.7876 17.9915 26.0298 17.811V39.4158ZM26.0298 16.7541C23.5981 16.8481 21.3431 17.643 19.4596 18.9409L26.0298 8.58062V16.7541ZM27.0858 7.29037H33.7914C38.7229 7.29037 42.7348 11.3022 42.7348 16.2337C42.7348 19.6513 40.8071 22.6273 37.9818 24.1317C36.0954 19.924 31.9424 16.9432 27.0858 16.7541V7.29037ZM27.0858 17.811C31.5172 18.0001 35.3024 20.7275 37.0218 24.5723C36.0196 24.9621 34.93 25.1761 33.7914 25.1761H27.0858V17.811ZM27.0858 40.6302V26.9128L36.2144 35.3646C34.2666 38.4049 30.9181 40.467 27.0858 40.6302ZM36.7549 34.4257L27.9047 26.2321H33.7914C35.0663 26.2321 36.2864 25.9921 37.4087 25.5544C37.7994 26.7054 38.0116 27.939 38.0116 29.2206C38.0116 31.0945 37.5584 32.8638 36.7549 34.4257Z" fill="white"/>
</svg>
