<svg width="16" height="18" viewBox="0 0 16 18" fill="none" xmlns="http://www.w3.org/2000/svg">
<path d="M0.799805 6.13411H14.7998M0.799805 6.13411V13.9565C0.799805 14.9522 0.799805 15.4497 0.990543 15.83C1.15832 16.1645 1.42584 16.4368 1.75513 16.6072C2.12911 16.8008 2.61892 16.8008 3.5971 16.8008H12.0029C12.9811 16.8008 13.4702 16.8008 13.8442 16.6072C14.1735 16.4368 14.4415 16.1645 14.6093 15.83C14.7998 15.4501 14.7998 14.9532 14.7998 13.9595V6.13411M0.799805 6.13411V5.42318C0.799805 4.42753 0.799805 3.92933 0.990543 3.54905C1.15832 3.21453 1.42584 2.94277 1.75513 2.77233C2.12947 2.57856 2.61988 2.57856 3.59998 2.57856H4.2998M14.7998 6.13411V5.42026C14.7998 4.42655 14.7998 3.92896 14.6093 3.54905C14.4415 3.21453 14.1735 2.94277 13.8442 2.77233C13.4699 2.57856 12.9801 2.57856 12 2.57856H11.2998M4.2998 2.57856H11.2998M4.2998 2.57856V0.800781M11.2998 2.57856V0.800781M10.8623 11.4674H4.7373M10.8623 11.4674L8.6748 9.24523M10.8623 11.4674L8.6748 13.6897" stroke="white" stroke-width="1.6" stroke-linecap="round" stroke-linejoin="round"/>
</svg>
